<?xml version="1.0" encoding="utf-8"?>
<!-- Generator: Adobe Illustrator 26.2.1, SVG Export Plug-In . SVG Version: 6.00 Build 0)  -->
<svg version="1.1" id="Layer_1" xmlns="http://www.w3.org/2000/svg" xmlns:xlink="http://www.w3.org/1999/xlink" x="0px" y="0px"
	 viewBox="0 0 2500 1800" style="enable-background:new 0 0 2500 1800;" xml:space="preserve">
<style type="text/css">
	.st0{fill:url(#SVGID_1_);}
	
		.st1{fill:url(#SVGID_00000136410165936914630220000014162064389035498672_);stroke:#010101;stroke-width:2.2578;stroke-miterlimit:10;}
	.st2{fill:#010101;}
</style>
<linearGradient id="SVGID_1_" gradientUnits="userSpaceOnUse" x1="0" y1="900" x2="2500" y2="900">
	<stop  offset="0" style="stop-color:#DDDDDF"/>
	<stop  offset="0.4721" style="stop-color:#FFFFFF"/>
	<stop  offset="1" style="stop-color:#DDDDDF"/>
</linearGradient>
<rect class="st0" width="2500" height="1800"/>
<linearGradient id="SVGID_00000114764697914598458240000012823490752073228167_" gradientUnits="userSpaceOnUse" x1="737.6401" y1="1071.4709" x2="740.7631" y2="1071.4709">
	<stop  offset="0" style="stop-color:#241F21"/>
	<stop  offset="0.4609" style="stop-color:#282425"/>
	<stop  offset="0.9944" style="stop-color:#848587"/>
</linearGradient>
<line style="fill:url(#SVGID_00000114764697914598458240000012823490752073228167_);stroke:#010101;stroke-width:2.2578;stroke-miterlimit:10;" x1="740.76" y1="1069.67" x2="737.64" y2="1073.27"/>
<path class="st2" d="M1606.55,1055.95c0,172.65-138.85,313.1-309.5,313.1c-85.82,0-163.63-35.53-219.72-92.85
	c-12.89-7.86-23.02-19.76-28.77-33.88c-3.38-8.29-5.26-17.34-5.26-26.86c0-0.54,0-1.04,0.04-1.57
	c0.81-38.63,32.42-69.71,71.25-69.71c39.36,0,71.28,31.92,71.28,71.28c0,39.36-31.92,71.25-71.28,71.25c-3.38,0-6.71-0.23-9.97-0.69
	c51.95,44.62,119.16,71.51,192.44,71.51c164.32,0,297.99-135.28,297.99-301.59c0-122.2-72.13-227.63-175.6-274.97
	c-19.18-8.79-39.44-15.58-60.54-20.07c-19.95-4.3-40.63-6.56-61.85-6.56c-40.55,0-79.23,8.25-114.48,23.17
	c-73.01,30.85-131.36,90.31-161.37,164.47c-2.8-3.99-5.29-7.98-7.48-11.89c-26.01-46.73-9.36-89.55,1.88-121.51
	c12.51-35.57,131.75-245.24,80.49-287.55c0,0,100.33,2.88,123.38,73.09c18.8,57.09,0.38,99.67-30.19,168.31
	c33.57-12.7,69.9-19.6,107.77-19.6c24.94,0,49.22,2.99,72.47,8.67c51.72-49.88,59.97-123.12,44.24-161.21
	c-18.26-44.24-108.35-128.64-271.52-107.73C979.04,503.52,855,632.62,966.57,787.78c0,0-75.01,2.57-73.09-136.89
	c1.92-139.46,188.49-233.69,356.46-218.3c168,15.38,228.28,100.02,239.79,194.25c5.29,43.16-14.96,100.17-61.23,145.71
	C1533.62,822.61,1606.55,930.84,1606.55,1055.95z"/>
</svg>
